<svg width="44" height="44" fill="none" xmlns="http://www.w3.org/2000/svg"><path d="M21.998 13.75a4.818 4.818 0 0 0 4.813-4.813 4.818 4.818 0 0 0-4.813-4.812 4.818 4.818 0 0 0-4.812 4.813 4.818 4.818 0 0 0 4.812 4.812Zm10.84-3.063s-2.841-2.645-3.464-.07c-.811 3.358-3.776 5.886-7.376 5.886-3.6 0-6.564-2.527-7.375-5.885-.622-2.576-3.465.069-3.465.069A16.547 16.547 0 0 0 5.383 23.26c.001 9.175 7.44 16.614 16.615 16.614 9.176 0 16.614-7.439 16.614-16.614 0-5.03-2.24-9.529-5.775-12.574h.002Zm-12.27 11.69 1.11-2.248 1.11 2.246 2.481.362-1.797 1.746.427 2.473-2.221-1.175-2.22 1.176.427-2.471-1.797-1.746 2.479-.363h.001Zm-9.792 7.752a13.065 13.065 0 0 1 0-13.736c2.623 1.185 4.463 3.802 4.463 6.868 0 3.066-1.84 5.683-4.463 6.868Zm11.222 6.308c-2.426 0-4.804-.676-6.868-1.952 1.185-2.626 3.802-4.465 6.868-4.465 3.067 0 5.683 1.84 6.868 4.464a13.073 13.073 0 0 1-6.868 1.952v.002Zm11.223-6.308c-2.623-1.185-4.463-3.803-4.463-6.868 0-3.066 1.84-5.683 4.464-6.868a13.065 13.065 0 0 1 0 13.736Z" fill="#FDFDFD"/></svg>