<svg width="44" height="44" fill="none" xmlns="http://www.w3.org/2000/svg"><path d="M33 4.125a2.758 2.758 0 0 1-2.75 2.75 2.758 2.758 0 0 1-2.75-2.75 2.758 2.758 0 0 1 2.75-2.75A2.758 2.758 0 0 1 33 4.125Z" fill="#EEEFEF"/><path d="M4.125 23.375a2.75 2.75 0 1 0 0-5.5 2.75 2.75 0 0 0 0 5.5Z" fill="#E1E0E1"/><path d="M11.688 6.875a2.758 2.758 0 0 1-2.75 2.75 2.758 2.758 0 0 1-2.75-2.75 2.758 2.758 0 0 1 2.75-2.75 2.758 2.758 0 0 1 2.75 2.75Z" fill="#DFDFDF"/><path d="M42.625 16.5a2.758 2.758 0 0 1-2.75 2.75 2.758 2.758 0 0 1-2.75-2.75 2.758 2.758 0 0 1 2.75-2.75 2.758 2.758 0 0 1 2.75 2.75Z" fill="#D5D5D5"/><path d="M37.125 39.188a2.75 2.75 0 1 0 0-5.5 2.75 2.75 0 0 0 0 5.5Z" fill="#FCFCFC"/><path d="m39.187 38.569-.894 1.787 1.719 1.031s.55-1.65.687-2.2c.207-.962-.962-1.581-1.512-.618Z" fill="#E6B796"/><path d="M12.377 38.706c1.512 0 2.062-1.1 2.406-1.787.756-1.788 2.819-7.219 2.819-7.219h-1.857c-1.03 0-1.65.481-1.856.963l-1.925 5.087H9.695l.825 1.788c.275.412.825 1.168 1.857 1.168ZM34.584 42.35c-1.512 0-1.718-.55-2.13-1.856L28.671 29.7h1.856c1.031 0 1.65.481 1.856.963l2.613 8.662h2.269l-.825 1.856c-.275.413-.825 1.17-1.857 1.17Z" fill="#F1F1F1"/><path d="m9.076 32.725.893 1.788-1.718 1.03s-.55-1.65-.688-2.2c-.206-1.03.963-1.58 1.513-.618Z" fill="#E6B796"/><path d="M8.045 35.407v-1.788c.206-1.306 6.463-1.306 6.257 0v1.788c-.138 1.306-6.394 1.306-6.257 0ZM40.218 41.25v-1.787c-.206-1.306-6.462-1.306-6.256 0v1.788c.137 1.306 6.394 1.306 6.256 0ZM24.753 28.6v-1.168h-3.231V28.6c0 .688-.481 1.17-1.1 1.17h5.431c-.619 0-1.1-.482-1.1-1.17Z" fill="#FFE1BD"/><path d="M18.906 29.7h8.457v4.881h-8.457v-4.88Z" fill="#FFE1BD"/><path d="M30.387 29.7h-4.056c-.343 1.513-1.65 2.681-3.231 2.681s-2.888-1.168-3.231-2.68h-4.056v12.924h14.506l.069-12.925Z" fill="#fff"/><path d="m13.82 18.081.963 1.788h16.775l.756-1.857c0-6.737-1.581-9.625-9.006-9.693-7.631-.07-9.488 2.956-9.488 9.762Z" fill="#0A0200"/><path d="M31.558 18.013c-.069.412-.138.756-.275.962-.206.344-.619.55-.619.55s.138-.756.069-1.787c-.413-6.188-.756-3.231-7.631-3.231s-7.22-2.957-7.632 3.23a8.049 8.049 0 0 0 .07 1.788s-.413-.206-.62-.55c-.137-.206-.206-.55-.275-.962-.618-.138-1.512 0-1.512 1.856 0 1.169.412 2.131 1.856 2.2.481 3.85 5.706 6.463 8.044 6.463 2.337 0 7.494-2.613 8.044-6.463 1.443-.069 1.856-1.031 1.856-2.2.069-1.925-.756-2.062-1.375-1.856Z" fill="#FFE1BD"/><path d="M19.663 20.075a1.444 1.444 0 1 0 0-2.887 1.444 1.444 0 0 0 0 2.887ZM26.674 20.075a1.444 1.444 0 1 0 0-2.888 1.444 1.444 0 0 0 0 2.888ZM25.918 23.856c0 1.031-1.375 1.581-2.75 1.581s-2.75-.55-2.75-1.58c0 0 0-.276.275-.276h4.95c.275 0 .275.275.275.275Z" fill="#440202"/></svg>
