<svg width="30" height="32" fill="none" xmlns="http://www.w3.org/2000/svg"><path d="M12.562.873A3.785 3.785 0 0 1 14.98 0c.886 0 1.743.307 2.42.87l11.267 9.352A3.67 3.67 0 0 1 30 13.045v16.083a2.85 2.85 0 0 1-.854 2.03 2.94 2.94 0 0 1-2.063.842H2.917a2.94 2.94 0 0 1-2.062-.84A2.85 2.85 0 0 1 0 29.13V13.044c0-1.087.487-2.118 1.328-2.82L12.562.873Zm8.745 15.17a1.23 1.23 0 0 0 .38-.875 1.212 1.212 0 0 0-.366-.88 1.251 1.251 0 0 0-.895-.36 1.266 1.266 0 0 0-.888.376l-6.621 6.519-2.45-2.413a1.251 1.251 0 0 0-.889-.375 1.267 1.267 0 0 0-.894.36 1.23 1.23 0 0 0-.366.882 1.215 1.215 0 0 0 .382.874l3.333 3.283a1.26 1.26 0 0 0 1.767 0l7.507-7.39Z" fill="#FDFDFD"/></svg>
