<svg width="44" height="44" fill="none" xmlns="http://www.w3.org/2000/svg"><path d="M6.088 11.51a5.5 5.5 0 0 0 0 7.777l7.62 7.623c.24.238.496.451.762.636.092-.273.22-.535.383-.779.869-1.305 1.98-2.244 3.265-2.779a6.556 6.556 0 0 1 1.68-.45v-7.04a3.3 3.3 0 0 1 4.517-3.067 3.3 3.3 0 0 1 .85-1.466l-5.877-5.878a5.5 5.5 0 0 0-7.78 0l-5.42 5.423Zm21.41 1.69a1.1 1.1 0 0 0-1.1 1.1v11a1.1 1.1 0 0 1-2.2 0v-8.8a1.1 1.1 0 0 0-2.2 0v9.35a5.499 5.499 0 0 0-.688-.132 4.578 4.578 0 0 0-2.348.301c-.84.352-1.621.983-2.279 1.969a1.1 1.1 0 0 0 .482 1.621c3.307 1.417 5.038 3.459 5.958 5.208 1.196 2.27 3.524 4.783 6.575 4.783h.581a5.5 5.5 0 0 0 4.92-3.043l1.385-2.772c.536-1.07.815-2.25.814-3.447V16.5a1.1 1.1 0 1 0-2.2 0v8.8a1.1 1.1 0 1 1-2.2 0v-11a1.1 1.1 0 0 0-2.2 0v11a1.1 1.1 0 0 1-2.2 0v-11a1.1 1.1 0 0 0-1.1-1.1Zm-19.8 13.2a1.1 1.1 0 0 1 1.1 1.1v1.1h1.1a1.1 1.1 0 1 1 0 2.2h-1.1v1.1a1.1 1.1 0 0 1-2.2 0v-1.1h-1.1a1.1 1.1 0 0 1 0-2.2h1.1v-1.1a1.1 1.1 0 0 1 1.1-1.1Zm6.6 6.6a1.1 1.1 0 0 1 1.1 1.1v1.1h1.1a1.1 1.1 0 1 1 0 2.2h-1.1v1.1a1.1 1.1 0 0 1-2.2 0v-1.1h-1.1a1.1 1.1 0 0 1 0-2.2h1.1v-1.1a1.1 1.1 0 0 1 1.1-1.1Z" fill="#FDFDFD"/></svg>
